:SAMPLES-PER-SECOND 30
:FULLY-SPECIFIED
:DEGREES
234
root  -6.29218 36.1692 12.163 -176.418 76.1615 -174.188
RightUpLeg  -31.6696 2.6958 -4.46525
RightLeg  34.9356 1.70567 1.03003
RightFoot  -3.96019 -1.22313 18.3934
RightToes  -1.39699e-009 0 -3.6325e-017
Spine  16.0935 -2.02152 -15.4528
Spine1  23.1816 -5.61816 1.54568
HEad  -34.1017 36.9464 -15.5806
LeftShoulder1  1.66897 -5.47062 -11.4316
LeftArm  -2.58628 -15.5737 -62.0088
LeftForeArm  -54.4002 -44.1046 -13.3107
LeftHand  -1.23208 1.40872 35.2259
RightShoulder  0.457136 -0.832783 9.88974
RightArm  8.21043 -5.5205 64.3634
RightForeArm  135.488 73.1901 142.524
RightHand  -0.901453 3.82764 -11.5802
LeftUpLeg  -5.76943 6.6108 8.80931
LeftLeg  44.1107 6.07964 6.69616
LeftFoot  -30.6915 -2.80396 -17.4118
LeftToes  3.40148e-010 1.80944e-010 1.01921e-010
235
root  -6.08944 36.0763 12.0459 -176.585 77.1177 -173.637
RightUpLeg  -31.2376 3.26453 -4.3603
RightLeg  36.0132 2.13035 1.40796
RightFoot  -4.70816 -1.11497 18.5343
RightToes  -1.39699e-009 0 -3.6325e-017
Spine  15.1439 -2.19856 -15.756
Spine1  23.9282 -5.85689 1.77274
HEad  -34.2017 34.7886 -14.5443
LeftShoulder1  1.64735 -5.60782 -10.8588
LeftArm  -0.443149 -16.9269 -63.7013
LeftForeArm  -64.0172 -35.5421 -10.3135
LeftHand  -1.09472 1.98203 36.5545
RightShoulder  0.4466 -0.86558 9.68111
RightArm  9.33685 -5.05426 64.8735
RightForeArm  134.152 73.6844 141.117
RightHand  -0.92072 3.83057 -11.8173
LeftUpLeg  -4.57817 7.1577 8.9684
LeftLeg  44.6642 6.1002 6.84275
LeftFoot  -30.928 -2.9413 -17.9883
LeftToes  3.40148e-010 1.80944e-010 1.01921e-010
236
root  -5.84561 36.0786 11.8931 -177.27 78.0842 -173.59
RightUpLeg  -30.3308 3.84355 -4.44348
RightLeg  36.4855 2.66123 1.85489
RightFoot  -5.57489 -1.00229 18.9846
RightToes  -1.39699e-009 0 -3.6325e-017
Spine  13.9188 -2.47772 -16.0301
Spine1  24.6726 -6.17634 2.03799
HEad  -34.3037 33.7972 -13.8205
LeftShoulder1  1.65946 -6.03605 -10.101
LeftArm  2.00214 -18.5034 -65.0945
LeftForeArm  -75.491 -28.2611 -8.3894
LeftHand  -0.984321 2.54333 39.1427
RightShoulder  0.436699 -0.871103 9.29504
RightArm  10.6237 -4.5586 65.4524
RightForeArm  132.176 74.2751 139.235
RightHand  -0.925472 3.73269 -11.9972
LeftUpLeg  -2.94021 7.66274 8.9443
LeftLeg  44.4527 6.23636 6.93455
LeftFoot  -30.7791 -3.01894 -18.5644
LeftToes  3.40148e-010 1.80944e-010 1.01921e-010
237
root  -5.54857 36.219 11.7141 -178.614 79.1101 -174.385
RightUpLeg  -29.0097 4.57963 -4.72855
RightLeg  36.0445 3.11015 2.17452
RightFoot  -6.25493 -0.920521 19.5733
RightToes  -1.39699e-009 0 -3.6325e-017
Spine  12.2233 -2.85805 -16.4298
Spine1  25.3515 -6.59365 2.43451
HEad  -34.468 33.4096 -13.4051
LeftShoulder1  1.60407 -6.35083 -8.8487
LeftArm  2.46357 -20.0805 -66.274
LeftForeArm  -83.27 -23.6411 -8.19643
LeftHand  -1.14903 2.44581 43.6575
RightShoulder  0.407788 -0.948273 8.58244
RightArm  12.1639 -3.87031 66.1048
RightForeArm  129.528 75.05 136.508
RightHand  -0.876775 3.58334 -11.5616
LeftUpLeg  -0.853182 8.4305 8.78265
LeftLeg  43.0468 6.31283 6.69391
LeftFoot  -30.1281 -2.98248 -18.9692
LeftToes  3.40148e-010 1.80944e-010 1.01921e-010
238
root  -5.18806 36.5238 11.5107 179.813 80.1137 -175.714
RightUpLeg  -27.2297 5.29067 -5.04097
RightLeg  34.308 3.4535 2.28537
RightFoot  -6.09465 -0.95998 19.8435
RightToes  -1.39699e-009 0 -3.6325e-017
Spine  9.98632 -3.31179 -16.6654
Spine1  25.6988 -6.99044 2.9236
HEad  -34.6379 32.5957 -13.2542
LeftShoulder1  1.41785 -6.05739 -7.22058
LeftArm  0.553213 -22.5229 -67.1759
LeftForeArm  -86.3763 -22.3141 -9.04149
LeftHand  -1.42855 2.11812 48.5644
RightShoulder  0.374265 -1.02266 7.60095
RightArm  13.6444 -3.42897 66.4509
RightForeArm  126.941 75.7247 133.802
RightHand  -0.799248 3.45223 -10.7164
LeftUpLeg  1.62306 9.3401 8.55643
LeftLeg  40.2124 6.40514 6.17168
LeftFoot  -28.7958 -2.80805 -19.2575
LeftToes  3.40148e-010 1.80944e-010 1.01921e-010
